<svg width="192" height="161" viewBox="0 0 192 161" fill="none" xmlns="http://www.w3.org/2000/svg">
<path d="M121.533 53.5807C121.061 53.1855 120.656 52.7131 120.338 52.1829L115.795 44.6445C115.004 43.3238 114.783 41.7428 115.197 40.2583L117.242 32.8837C117.608 31.5534 118.457 30.4255 119.614 29.6736C124.697 26.3767 133.964 16.7561 133.964 16.7561C136.8 13.2567 134.427 9.05373 133.366 7.52097C133.116 7.16429 132.836 6.82689 132.498 6.54733C124.918 -0.0560418 111.407 1.92979 108.35 7.68485C104.444 15.0305 100.172 7.71377 98.3976 5.90146C83.7292 -9.05013 78.3382 11.7818 78.3382 11.7818C64.6824 5.0917 58.655 4.44582 54.6913 5.10134C51.2195 5.6701 49.1653 9.32364 50.4383 12.6012C53.4569 20.4096 65.3768 29.3844 68.7136 31.7848C69.514 32.3632 70.1987 33.1151 70.5459 34.0309C72.8412 39.9595 65.2128 49.1753 62.6186 52.0769C62.0978 52.6553 61.4517 53.1084 60.7477 53.4458C38.9138 63.6738 26.396 104.345 24.583 110.582C24.4287 111.112 24.3515 111.652 24.3612 112.201C24.6601 136.581 38.1327 148.901 41.6816 151.725C42.1831 152.13 42.7521 152.448 43.3693 152.651C48.1045 154.28 52.7143 155.61 57.218 156.69C89.9784 164.517 116.48 158.888 133.067 152.313C132.942 152.101 132.961 151.841 133.251 151.716C134.167 151.32 134.996 150.79 135.787 150.192C136.51 149.643 137.185 149.045 137.976 148.602C138.343 148.399 138.728 148.216 139.124 148.043C139.625 147.686 140.136 147.339 140.657 147.011C141.93 146.201 143.232 145.44 144.534 144.669C144.872 144.052 145.344 143.502 145.865 143.04C145.99 142.934 146.145 142.905 146.289 142.924C146.588 141.044 148.826 139.801 150.041 138.538C151.024 137.516 151.825 136.311 152.51 135.038L154.786 121.398C154.824 121.099 154.834 120.791 154.824 120.482C153.194 81.7391 126.24 57.5138 121.543 53.5807H121.533Z" fill="#01514F"/>
<path d="M83.0148 14.0663C82.2047 13.6711 81.3271 13.2373 80.3916 12.7842C81.1342 13.1505 82.0407 13.5939 83.0148 14.0663Z" fill="#003C3C"/>
<path d="M89.4517 17.2287C89.201 17.1034 88.9309 16.9685 88.6416 16.8335C88.9213 16.9685 89.1913 17.1034 89.4517 17.2287Z" fill="#003C3C"/>
<path d="M86.8246 15.9269C86.8246 15.9269 86.7859 15.9076 86.7666 15.8979C86.7859 15.9076 86.8052 15.9173 86.8246 15.9269Z" fill="#003C3C"/>
<path d="M86.2193 15.6378C85.8142 15.445 85.3996 15.2329 84.9463 15.0112C85.3706 15.2233 85.795 15.4257 86.2193 15.6378Z" fill="#003C3C"/>
<path d="M84.5975 14.8471C84.424 14.7603 84.2311 14.6639 84.0479 14.5771C84.2311 14.6639 84.4143 14.7603 84.5975 14.8471Z" fill="#003C3C"/>
<path d="M78.7604 11.9847C78.6447 11.9268 78.5386 11.8786 78.4229 11.8208C78.4904 11.8594 78.6157 11.9172 78.7604 11.9847Z" fill="#003C3C"/>
<path d="M91.4072 18.1831C91.5808 18.2699 91.7351 18.3373 91.8701 18.4048C91.7351 18.3373 91.5808 18.2602 91.4072 18.1831Z" fill="#003C3C"/>
<path d="M91.876 18.4141C91.876 18.4141 91.8963 18.4242 91.9166 18.4344C91.9064 18.4344 91.8963 18.4242 91.876 18.4141Z" fill="#003C3C"/>
<path d="M92.2744 18.6069C92.2744 18.6069 92.3521 18.6453 92.3812 18.6549C92.3521 18.6357 92.3132 18.6261 92.2744 18.6069Z" fill="#003C3C"/>
<path d="M74.3506 75.3667H114.633L110.863 81.2567H101.913C101.913 81.2567 105.182 85.7586 103.774 87.5902H114.633L110.679 93.8369H103.668C103.668 93.8369 99.6756 109.463 82.8566 108.499L106.687 137.169H96.3388L73.0487 110.225V104.19C73.0487 104.19 89.9738 106.774 94.4004 93.9526L69.7119 94.1646L74.5628 87.4841L93.2527 87.2721C93.2527 87.2721 92.3559 82.857 86.637 81.0254H70.4641L74.3603 75.3763L74.3506 75.3667Z" fill="#00DC82"/>
<path d="M151.579 100.411C151.579 100.411 173.683 152.756 112.087 157.971C112.087 157.971 155.514 135.636 151.579 100.411Z" fill="#003C3C"/>
<path d="M53.5202 5.41003C53.5202 5.41003 71.7086 29.1918 76.1545 30.5993C76.1545 30.5993 18.3488 119.258 62.7494 154.829C64.1092 155.919 65.035 156.864 65.3533 158.358L49.055 154.463C49.055 154.463 19.1974 138.499 22.5439 112.298C22.5439 112.298 43.7027 58.9504 66.8095 44.2784L67.6485 30.9945C67.6485 30.9945 42.0053 12.4665 53.5105 5.40039L53.5202 5.41003Z" fill="#003C3C"/>
<path d="M3.86035 91.8701H40.0733V99.7942H45.011V107.911H41.9249V115.941H46.4576V123.856H40.2855V131.317H47.2773V139.492H40.1794V147.714H47.2773V155.513H10.7558V147.512H3.86035V139.694H11.1705V131.317H3.86035V123.692H10.4472V115.835H5.60591V107.815H8.38336V99.7942H3.86035V91.8701Z" fill="#FFE783" stroke="#CD7B0D" stroke-width="0.5" stroke-miterlimit="10"/>
<path d="M8.3916 99.7939H40.0815" stroke="#CD7B0D" stroke-width="0.5" stroke-miterlimit="10"/>
<path d="M8.3916 107.815H41.9332" stroke="#CD7B0D" stroke-width="0.5" stroke-miterlimit="10"/>
<path d="M10.4463 115.835H41.9241" stroke="#CD7B0D" stroke-width="0.5" stroke-miterlimit="10"/>
<path d="M10.4463 123.692H40.2846" stroke="#CD7B0D" stroke-width="0.5" stroke-miterlimit="10"/>
<path d="M11.1729 131.317H40.2879" stroke="#CD7B0D" stroke-width="0.5" stroke-miterlimit="10"/>
<path d="M11.1729 139.695H40.1818" stroke="#CD7B0D" stroke-width="0.5" stroke-miterlimit="10"/>
<path d="M10.7666 147.512H40.1902" stroke="#CD7B0D" stroke-width="0.5" stroke-miterlimit="10"/>
<path d="M15.4854 100.913V105.945" stroke="#CD7B0D" stroke-width="0.55" stroke-miterlimit="10"/>
<path d="M11.8447 124.993V130.016" stroke="#CD7B0D" stroke-width="0.55" stroke-miterlimit="10"/>
<path d="M16.9619 124.993V130.016" stroke="#CD7B0D" stroke-width="0.55" stroke-miterlimit="10"/>
<path d="M21.9932 124.993V130.016" stroke="#CD7B0D" stroke-width="0.55" stroke-miterlimit="10"/>
<path d="M27.7041 124.993V130.016" stroke="#CD7B0D" stroke-width="0.55" stroke-miterlimit="10"/>
<path d="M32.7354 124.993V130.016" stroke="#CD7B0D" stroke-width="0.55" stroke-miterlimit="10"/>
<path d="M22.501 100.913V105.945" stroke="#CD7B0D" stroke-width="0.55" stroke-miterlimit="10"/>
<path d="M29.6338 100.913V105.945" stroke="#CD7B0D" stroke-width="0.55" stroke-miterlimit="10"/>
<path d="M36.5947 100.913V105.945" stroke="#CD7B0D" stroke-width="0.55" stroke-miterlimit="10"/>
<path d="M12.4854 109.386V114.409" stroke="#CD7B0D" stroke-width="0.55" stroke-miterlimit="10"/>
<path d="M19.4854 109.386V114.409" stroke="#CD7B0D" stroke-width="0.55" stroke-miterlimit="10"/>
<path d="M26.626 109.386V114.409" stroke="#CD7B0D" stroke-width="0.55" stroke-miterlimit="10"/>
<path d="M33.5869 109.386V114.409" stroke="#CD7B0D" stroke-width="0.55" stroke-miterlimit="10"/>
<path d="M20.5557 117.175V122.197" stroke="#CD7B0D" stroke-width="0.55" stroke-miterlimit="10"/>
<path d="M22.0166 132.994V138.016" stroke="#CD7B0D" stroke-width="0.55" stroke-miterlimit="10"/>
<path d="M29.0166 132.994V138.016" stroke="#CD7B0D" stroke-width="0.55" stroke-miterlimit="10"/>
<path d="M36.0088 132.994V138.016" stroke="#CD7B0D" stroke-width="0.55" stroke-miterlimit="10"/>
<path d="M41.1104 132.994V138.016" stroke="#CD7B0D" stroke-width="0.55" stroke-miterlimit="10"/>
<path d="M15.7744 141.092V146.115" stroke="#CD7B0D" stroke-width="0.55" stroke-miterlimit="10"/>
<path d="M9.17285 141.092V146.115" stroke="#CD7B0D" stroke-width="0.55" stroke-miterlimit="10"/>
<path d="M22.7744 141.092V146.115" stroke="#CD7B0D" stroke-width="0.55" stroke-miterlimit="10"/>
<path d="M29.7666 141.092V146.115" stroke="#CD7B0D" stroke-width="0.55" stroke-miterlimit="10"/>
<path d="M34.8525 141.092V146.115" stroke="#CD7B0D" stroke-width="0.55" stroke-miterlimit="10"/>
<path d="M25.126 148.948V153.971" stroke="#CD7B0D" stroke-width="0.55" stroke-miterlimit="10"/>
<path d="M18.5166 148.948V153.971" stroke="#CD7B0D" stroke-width="0.55" stroke-miterlimit="10"/>
<path d="M32.1182 148.948V153.971" stroke="#CD7B0D" stroke-width="0.55" stroke-miterlimit="10"/>
<path d="M39.1104 148.948V153.971" stroke="#CD7B0D" stroke-width="0.55" stroke-miterlimit="10"/>
<path d="M14.5479 93.2593V98.2817" stroke="#CD7B0D" stroke-width="0.55" stroke-miterlimit="10"/>
<path d="M21.54 93.2593V98.2817" stroke="#CD7B0D" stroke-width="0.55" stroke-miterlimit="10"/>
<path d="M28.54 93.2593V98.2817" stroke="#CD7B0D" stroke-width="0.55" stroke-miterlimit="10"/>
<path d="M33.6494 93.2593V98.2817" stroke="#CD7B0D" stroke-width="0.55" stroke-miterlimit="10"/>
<path d="M38.9385 91.8804V99.6598" stroke="#CD7B0D" stroke-width="2" stroke-miterlimit="10"/>
<path opacity="0.7" d="M37.376 91.8804V99.6598" stroke="#CD7B0D" stroke-width="2" stroke-miterlimit="10"/>
<path d="M44.1963 99.7944V107.815" stroke="#CD7B0D" stroke-width="2" stroke-miterlimit="10"/>
<path opacity="0.7" d="M42.3057 99.7944V107.815" stroke="#CD7B0D" stroke-width="2" stroke-miterlimit="10"/>
<path d="M41.0244 107.729V115.749" stroke="#CD7B0D" stroke-width="2" stroke-miterlimit="10"/>
<path opacity="0.7" d="M39.1338 107.729V115.749" stroke="#CD7B0D" stroke-width="2" stroke-miterlimit="10"/>
<path d="M39.2744 123.499V131.519" stroke="#CD7B0D" stroke-width="2" stroke-miterlimit="10"/>
<path opacity="0.7" d="M37.3838 123.499V131.519" stroke="#CD7B0D" stroke-width="2" stroke-miterlimit="10"/>
<path opacity="0.7" d="M13.4619 155.465V147.445" stroke="#CD7B0D" stroke-width="2" stroke-miterlimit="10"/>
<path d="M11.5166 155.465V147.445" stroke="#CD7B0D" stroke-width="2" stroke-miterlimit="10"/>
<path opacity="0.7" d="M8.63379 115.903V107.882" stroke="#CD7B0D" stroke-width="2" stroke-miterlimit="10"/>
<path d="M6.7041 115.903V107.882" stroke="#CD7B0D" stroke-width="2" stroke-miterlimit="10"/>
<path opacity="0.7" d="M11.3135 107.815V99.7944" stroke="#CD7B0D" stroke-width="2" stroke-miterlimit="10"/>
<path d="M9.36816 107.815V99.7944" stroke="#CD7B0D" stroke-width="2" stroke-miterlimit="10"/>
<path opacity="0.7" d="M6.93066 99.7851V91.7646" stroke="#CD7B0D" stroke-width="2" stroke-miterlimit="10"/>
<path d="M4.98535 99.7851V91.7646" stroke="#CD7B0D" stroke-width="2" stroke-miterlimit="10"/>
<path opacity="0.7" d="M13.4619 123.71V115.69" stroke="#CD7B0D" stroke-width="2" stroke-miterlimit="10"/>
<path d="M11.5166 123.71V115.69" stroke="#CD7B0D" stroke-width="2" stroke-miterlimit="10"/>
<path opacity="0.7" d="M13.7822 139.522V131.501" stroke="#CD7B0D" stroke-width="2" stroke-miterlimit="10"/>
<path d="M11.8525 139.522V131.501" stroke="#CD7B0D" stroke-width="2" stroke-miterlimit="10"/>
<path d="M27.7041 117.175V122.197" stroke="#CD7B0D" stroke-width="0.55" stroke-miterlimit="10"/>
<path d="M34.6572 117.175V122.197" stroke="#CD7B0D" stroke-width="0.55" stroke-miterlimit="10"/>
<path d="M41.5479 117.03V122.053" stroke="#CD7B0D" stroke-width="0.55" stroke-miterlimit="10"/>
<path d="M121.991 49.8394C126.459 49.8394 130.082 46.2097 130.082 41.7322C130.082 37.2547 126.459 33.625 121.991 33.625C117.522 33.625 113.899 37.2547 113.899 41.7322C113.899 46.2097 117.522 49.8394 121.991 49.8394Z" fill="#804A1E"/>
<path d="M129.859 43.5923L130.081 46.3204C130.081 46.3204 145.502 55.9893 151.896 65.1858C151.896 65.1858 164.982 78.2962 166.94 93.267C167.133 94.7612 166.921 96.3326 166.053 97.5665C165.117 98.9161 163.536 99.6873 161.183 96.1687C161.25 95.8698 160.72 92.9489 158.791 88.1771C156.023 81.3328 152.04 75.0572 147.16 69.5142C140.853 62.3517 130.303 51.0344 125.095 49.2317L116.618 45.8866L121.99 36.7769L127.815 40.0255C128.712 40.5268 129.445 41.3269 129.772 42.3006C129.917 42.744 129.985 43.2067 129.859 43.5923Z" fill="#804A1E"/>
<path d="M113.499 31.2539H65.9547C63.1584 31.2539 60.8916 33.5198 60.8916 36.3149C60.8916 39.11 63.1584 41.3759 65.9547 41.3759H113.499C116.295 41.3759 118.562 39.11 118.562 36.3149C118.562 33.5198 116.295 31.2539 113.499 31.2539Z" stroke="#92470E" stroke-width="0.5" stroke-miterlimit="10"/>
<path d="M113.499 31.2539H65.9547C63.1584 31.2539 60.8916 33.5198 60.8916 36.3149C60.8916 39.11 63.1584 41.3759 65.9547 41.3759H113.499C116.295 41.3759 118.562 39.11 118.562 36.3149C118.562 33.5198 116.295 31.2539 113.499 31.2539Z" fill="#E2B886"/>
<path d="M122.135 41.375H58.6109C55.8147 41.375 53.5479 43.6409 53.5479 46.436C53.5479 49.2311 55.8147 51.497 58.6109 51.497H122.135C124.932 51.497 127.199 49.2311 127.199 46.436C127.199 43.6409 124.932 41.375 122.135 41.375Z" stroke="#92470E" stroke-width="0.5" stroke-miterlimit="10"/>
<path d="M122.135 41.375H58.6109C55.8147 41.375 53.5479 43.6409 53.5479 46.436C53.5479 49.2311 55.8147 51.497 58.6109 51.497H122.135C124.932 51.497 127.199 49.2311 127.199 46.436C127.199 43.6409 124.932 41.375 122.135 41.375Z" fill="#E2B886"/>
<path d="M129.238 51.498H50.65C47.8537 51.498 45.5869 53.7639 45.5869 56.559C45.5869 59.3541 47.8537 61.62 50.65 61.62H129.238C132.035 61.62 134.301 59.3541 134.301 56.559C134.301 53.7639 132.035 51.498 129.238 51.498Z" stroke="#92470E" stroke-width="0.5" stroke-miterlimit="10"/>
<path d="M129.238 51.498H50.65C47.8537 51.498 45.5869 53.7639 45.5869 56.559C45.5869 59.3541 47.8537 61.62 50.65 61.62H129.238C132.035 61.62 134.301 59.3541 134.301 56.559C134.301 53.7639 132.035 51.498 129.238 51.498Z" fill="#E2B886"/>
<path d="M73.8579 31.041L54.165 61.7829" stroke="#92470E" stroke-width="0.25" stroke-miterlimit="10"/>
<path d="M53.449 51.3521L47.4697 60.6835" stroke="#92470E" stroke-width="0.25" stroke-miterlimit="10"/>
<path d="M59.9576 41.2114L54.5088 49.7139" stroke="#92470E" stroke-width="0.25" stroke-miterlimit="10"/>
<path d="M66.4005 31.1084L61.376 38.965" stroke="#92470E" stroke-width="0.25" stroke-miterlimit="10"/>
<path d="M81.2128 31.0698L61.626 61.7924" stroke="#92470E" stroke-width="0.25" stroke-miterlimit="10"/>
<path d="M88.281 31.0605L68.9932 61.8699" stroke="#92470E" stroke-width="0.25" stroke-miterlimit="10"/>
<path d="M95.1179 31.0605L75.9072 61.7446" stroke="#92470E" stroke-width="0.25" stroke-miterlimit="10"/>
<path d="M101.816 31.041L82.5479 61.8118" stroke="#92470E" stroke-width="0.25" stroke-miterlimit="10"/>
<path d="M108.012 31.0796L88.7822 61.8022" stroke="#92470E" stroke-width="0.25" stroke-miterlimit="10"/>
<path d="M114.875 31.2529L95.79 61.7345" stroke="#92470E" stroke-width="0.25" stroke-miterlimit="10"/>
<path d="M118.391 34.7529L101.485 61.7738" stroke="#92470E" stroke-width="0.25" stroke-miterlimit="10"/>
<path d="M120.389 41.376L107.61 61.7838" stroke="#92470E" stroke-width="0.25" stroke-miterlimit="10"/>
<path d="M125.644 42.8115L113.743 61.8215" stroke="#92470E" stroke-width="0.25" stroke-miterlimit="10"/>
<path d="M127.394 51.4297L120.923 61.7734" stroke="#92470E" stroke-width="0.25" stroke-miterlimit="10"/>
<path d="M132.526 52.731L126.923 61.6865" stroke="#92470E" stroke-width="0.25" stroke-miterlimit="10"/>
<path d="M130.517 48.2783C131.134 48.741 131.722 49.2327 132.31 49.7243C132.841 50.1678 133.371 50.6016 133.892 51.045C135.715 52.5681 137.537 54.0912 139.35 55.6047" stroke="#5B2E0C" stroke-width="0.25" stroke-miterlimit="10"/>
<path d="M144.157 61.8032C145.951 62.9118 147.803 64.0879 148.931 65.8616C150.001 67.539 150.3 69.5827 150.898 71.4817C151.496 73.3808 152.576 75.3377 154.447 76.0222" stroke="#5B2E0C" stroke-width="0.25" stroke-miterlimit="10"/>
<path d="M154.767 72.3687C156.609 73.67 157.698 75.7523 158.73 77.7574C159.097 78.4611 159.454 79.1745 159.82 79.8782" stroke="#5B2E0C" stroke-width="0.25" stroke-miterlimit="10"/>
<path d="M143.681 62.5933C145.185 63.3741 146.612 64.3477 147.77 65.5913C148.927 66.8348 149.795 68.3676 150.104 70.0353" stroke="#5B2E0C" stroke-width="0.25" stroke-miterlimit="10"/>
<path d="M134.353 52.5679C136.821 55.1321 139.406 57.7831 142.743 59.017C143.881 59.4412 145.096 59.6918 146.166 60.2702C147.285 60.8775 148.201 61.8512 148.751 62.9983" stroke="#5B2E0C" stroke-width="0.25" stroke-miterlimit="10"/>
<path d="M127.353 47.1986C128.336 47.2564 129.349 46.8226 129.976 46.061" stroke="#5B2E0C" stroke-width="0.25" stroke-miterlimit="10"/>
<path d="M127.345 47.9018C127.48 47.9789 127.644 47.9596 127.798 47.9307C128.724 47.7475 129.65 47.3619 130.286 46.6582" stroke="#5B2E0C" stroke-width="0.25" stroke-miterlimit="10"/>
<path d="M171.469 119.585C182.531 119.585 191.499 110.901 191.499 100.19C191.499 89.4777 182.531 80.7939 171.469 80.7939C160.406 80.7939 151.438 89.4777 151.438 100.19C151.438 110.901 160.406 119.585 171.469 119.585Z" fill="#CD7B0D"/>
<path d="M171.132 114.987C179.058 114.987 185.483 108.565 185.483 100.643C185.483 92.7205 179.058 86.2983 171.132 86.2983C163.207 86.2983 156.782 92.7205 156.782 100.643C156.782 108.565 163.207 114.987 171.132 114.987Z" fill="#F5BF38"/>
<path d="M169.291 117.107C178.585 117.107 186.119 109.576 186.119 100.286C186.119 90.9952 178.585 83.4639 169.291 83.4639C159.996 83.4639 152.462 90.9952 152.462 100.286C152.462 109.576 159.996 117.107 169.291 117.107Z" stroke="#F8DC61" stroke-width="4" stroke-miterlimit="10"/>
<path opacity="0.5" d="M173.18 82.3228L171.907 81.5034L153.204 110.535L154.477 111.354L173.18 82.3228Z" fill="#FFE783"/>
<path opacity="0.5" d="M185.501 90.1436L184.228 89.3242L165.525 118.356L166.798 119.175L185.501 90.1436Z" fill="#FFE783"/>
<path opacity="0.5" d="M179.61 84.5205L176.845 82.7407L156.461 114.382L159.225 116.162L179.61 84.5205Z" fill="#FFE783"/>
<path d="M167.031 93.0176H174.457L173.849 94.184H172.2C172.2 94.184 172.19 94.184 172.2 94.1937C172.239 94.2901 172.537 95.0709 172.537 95.4276C172.537 95.4468 172.547 95.4565 172.566 95.4565H174.466L173.618 96.7964H172.48C172.48 96.7964 172.19 99.7656 168.728 99.8523L173.232 105.877H171.293L167.031 100.257V99.139C167.031 99.139 170.31 99.3703 170.83 96.835L166.298 96.8061L167.079 95.5047L170.541 95.4854C170.541 95.4854 170.56 95.4854 170.56 95.4661C170.541 95.3601 170.397 94.8685 169.606 94.3383C169.432 94.2226 169.23 94.1647 169.027 94.1647H166.308L167.04 93.0272L167.031 93.0176Z" fill="#D89B0F"/>
<path d="M166.445 93.0176H173.871L173.263 94.184H171.614C171.614 94.184 171.604 94.184 171.614 94.1937C171.653 94.2901 171.952 95.0709 171.952 95.4276C171.952 95.4468 171.961 95.4565 171.98 95.4565H173.88L173.032 96.7964H171.894C171.894 96.7964 171.604 99.7656 168.142 99.8523L172.646 105.877H170.707L166.445 100.257V99.139C166.445 99.139 169.724 99.3703 170.245 96.835L165.712 96.8061L166.493 95.5047L169.955 95.4854C169.955 95.4854 169.975 95.4854 169.975 95.4661C169.955 95.3601 169.811 94.8685 169.02 94.3383C168.846 94.2226 168.644 94.1647 168.441 94.1647H165.722L166.454 93.0272L166.445 93.0176Z" fill="#FFE783"/>
<path d="M157.729 88.7953C157.729 88.7953 157.198 92.9598 154.72 92.8923C154.72 92.8923 157.786 93.4225 157.729 97.2303C157.729 97.2303 157.584 93.6056 160.651 93.008C160.651 93.008 158.259 92.4778 157.729 88.7856V88.7953Z" fill="white"/>
<path d="M179.296 104.248C179.296 104.248 178.746 108.547 176.181 108.489C176.181 108.489 179.353 109.039 179.296 112.972C179.296 112.972 179.141 109.222 182.314 108.614C182.314 108.614 179.845 108.065 179.296 104.257V104.248Z" fill="white"/>
<path d="M160.107 86.915C160.107 86.915 159.866 88.7755 158.767 88.7466C158.767 88.7466 160.136 88.9876 160.107 90.6843C160.107 90.6843 160.04 89.0648 161.409 88.8045C161.409 88.8045 160.339 88.5635 160.107 86.9247V86.915Z" fill="white"/>
<path d="M42.22 130.382C42.22 130.382 41.95 132.493 40.6963 132.464C40.6963 132.464 42.2586 132.734 42.22 134.662C42.22 134.662 42.1429 132.821 43.7052 132.522C43.7052 132.522 42.4901 132.252 42.22 130.382Z" fill="white"/>
<path d="M10.3528 105.944C10.3528 105.944 10.0828 108.055 8.8291 108.027C8.8291 108.027 10.3914 108.296 10.3528 110.224C10.3528 110.224 10.2757 108.383 11.838 108.084C11.838 108.084 10.6229 107.814 10.3528 105.944Z" fill="white"/>
<path d="M13.599 144.187C13.599 144.187 13.165 147.57 11.1494 147.522C11.1494 147.522 13.6472 147.956 13.599 151.05C13.599 151.05 13.4832 148.1 15.981 147.618C15.981 147.618 14.0329 147.185 13.599 144.187Z" fill="white"/>
<path d="M21.5314 91.7644C32.5939 91.7644 41.5619 83.0807 41.5619 72.3688C41.5619 61.6569 32.5939 52.9731 21.5314 52.9731C10.4689 52.9731 1.50098 61.6569 1.50098 72.3688C1.50098 83.0807 10.4689 91.7644 21.5314 91.7644Z" fill="#CD7B0D"/>
<path d="M21.1949 87.1661C29.1203 87.1661 35.5451 80.7439 35.5451 72.8218C35.5451 64.8997 29.1203 58.4775 21.1949 58.4775C13.2695 58.4775 6.84473 64.8997 6.84473 72.8218C6.84473 80.7439 13.2695 87.1661 21.1949 87.1661Z" fill="#F5BF38"/>
<path d="M19.3531 89.2958C28.6473 89.2958 36.1817 81.7645 36.1817 72.4741C36.1817 63.1837 28.6473 55.6523 19.3531 55.6523C10.0589 55.6523 2.52441 63.1837 2.52441 72.4741C2.52441 81.7645 10.0589 89.2958 19.3531 89.2958Z" stroke="#F8DC61" stroke-width="4" stroke-miterlimit="10"/>
<path opacity="0.5" d="M23.2427 54.5079L21.9697 53.6885L3.2668 82.7201L4.53979 83.5395L23.2427 54.5079Z" fill="#FFE783"/>
<path opacity="0.5" d="M35.5552 62.3189L34.2822 61.4995L15.5793 90.5311L16.8523 91.3505L35.5552 62.3189Z" fill="#FFE783"/>
<path opacity="0.5" d="M29.6721 56.6958L26.9072 54.916L6.52302 86.5574L9.28792 88.3371L29.6721 56.6958Z" fill="#FFE783"/>
<path d="M17.0777 65.1968H24.5035L23.8959 66.3632H22.2468C22.2468 66.3632 22.2372 66.3632 22.2468 66.3729C22.2854 66.4693 22.5843 67.2501 22.5843 67.6068C22.5843 67.626 22.594 67.6357 22.6133 67.6357H24.5131L23.6645 68.9756H22.5265C22.5265 68.9756 22.2372 71.9448 18.775 72.0315L23.2787 78.0565H21.3403L17.0777 72.4364V71.3182C17.0777 71.3182 20.3566 71.5495 20.8774 69.0142L16.3447 68.9853L17.1259 67.6839L20.5881 67.6646C20.5881 67.6646 20.6073 67.6646 20.6073 67.6453C20.5881 67.5393 20.4434 67.0477 19.6526 66.5175C19.479 66.4018 19.2765 66.3439 19.074 66.3439H16.3544L17.0873 65.2064L17.0777 65.1968Z" fill="#D89B0F"/>
<path d="M16.5073 65.1968H23.9332L23.3256 66.3632H21.6765C21.6765 66.3632 21.6668 66.3632 21.6765 66.3729C21.7151 66.4693 22.014 67.2501 22.014 67.6068C22.014 67.626 22.0237 67.6357 22.043 67.6357H23.9428L23.0942 68.9756H21.9562C21.9562 68.9756 21.6669 71.9448 18.2047 72.0315L22.7084 78.0565H20.77L16.5073 72.4364V71.3182C16.5073 71.3182 19.7863 71.5495 20.3071 69.0142L15.7744 68.9853L16.5556 67.6839L20.0177 67.6646C20.0177 67.6646 20.037 67.6646 20.037 67.6453C20.0177 67.5393 19.8731 67.0477 19.0823 66.5175C18.9087 66.4018 18.7062 66.3439 18.5036 66.3439H15.7841L16.517 65.2064L16.5073 65.1968Z" fill="#FFE783"/>
<path d="M7.77551 60.9745C7.77551 60.9745 7.24509 65.1389 4.7666 65.0715C4.7666 65.0715 7.83337 65.6017 7.77551 69.4095C7.77551 69.4095 7.63085 65.7848 10.6976 65.1871C10.6976 65.1871 8.30593 64.657 7.77551 60.9648V60.9745Z" fill="white"/>
<path d="M29.3425 76.4268C29.3425 76.4268 28.7928 80.7262 26.2275 80.6683C26.2275 80.6683 29.4004 81.2178 29.3425 85.1509C29.3425 85.1509 29.1882 81.401 32.3611 80.7937C32.3611 80.7937 29.8922 80.2442 29.3425 76.4364V76.4268Z" fill="white"/>
<path d="M10.1696 59.0942C10.1696 59.0942 9.92851 60.9548 8.8291 60.9258C8.8291 60.9258 10.1985 61.1668 10.1696 62.8635C10.1696 62.8635 10.1021 61.2439 11.4715 60.9837C11.4715 60.9837 10.4011 60.7427 10.1696 59.1039V59.0942Z" fill="white"/>
<path opacity="0.7" d="M37.3838 139.588V147.618" stroke="#CD7B0D" stroke-width="2" stroke-miterlimit="10"/>
<path d="M39.3291 139.588V147.618" stroke="#CD7B0D" stroke-width="2" stroke-miterlimit="10"/>
<path opacity="0.7" d="M44.6729 147.445V155.465" stroke="#CD7B0D" stroke-width="2" stroke-miterlimit="10"/>
<path d="M46.6025 147.445V155.465" stroke="#CD7B0D" stroke-width="2" stroke-miterlimit="10"/>
<path opacity="0.7" d="M6.93066 147.618V139.588" stroke="#CD7B0D" stroke-width="2" stroke-miterlimit="10"/>
<path d="M4.98535 147.618V139.588" stroke="#CD7B0D" stroke-width="2" stroke-miterlimit="10"/>
<path d="M4.98535 131.52V123.5" stroke="#CD7B0D" stroke-width="2" stroke-miterlimit="10"/>
<path opacity="0.7" d="M6.93066 131.52V123.5" stroke="#CD7B0D" stroke-width="2" stroke-miterlimit="10"/>
<path opacity="0.7" d="M44.6729 131.317V139.338" stroke="#CD7B0D" stroke-width="2" stroke-miterlimit="10"/>
<path d="M46.6025 131.317V139.338" stroke="#CD7B0D" stroke-width="2" stroke-miterlimit="10"/>
<path opacity="0.7" d="M43.6963 115.672V123.693" stroke="#CD7B0D" stroke-width="2" stroke-miterlimit="10"/>
<path d="M45.6416 115.672V123.693" stroke="#CD7B0D" stroke-width="2" stroke-miterlimit="10"/>
</svg>
