<svg width="151" height="162" viewBox="0 0 151 162" fill="none" xmlns="http://www.w3.org/2000/svg">
<path d="M145.154 75.3584H109.624C107.5 75.3584 105.778 77.0677 105.778 79.1762V146.122C105.778 148.231 107.5 149.94 109.624 149.94H145.154C147.278 149.94 148.999 148.231 148.999 146.122V79.1762C148.999 77.0677 147.278 75.3584 145.154 75.3584Z" fill="#417A79" stroke="#003C3C" stroke-width="3" stroke-miterlimit="10"/>
<path d="M145.154 75.3584H109.624C107.5 75.3584 105.778 77.0677 105.778 79.1762V146.122C105.778 148.231 107.5 149.94 109.624 149.94H145.154C147.278 149.94 148.999 148.231 148.999 146.122V79.1762C148.999 77.0677 147.278 75.3584 145.154 75.3584Z" fill="#417A79" stroke="#003C3C" stroke-width="3" stroke-miterlimit="10"/>
<path d="M133.345 99.3848V113.678" stroke="#003C3C" stroke-width="2.25" stroke-miterlimit="10"/>
<path d="M141.407 109.703V129.549" stroke="#003C3C" stroke-width="2.25" stroke-miterlimit="10"/>
<path d="M133.345 116.858V129.55" stroke="#003C3C" stroke-width="2.25" stroke-miterlimit="10"/>
<path d="M133.345 133.984V146.668" stroke="#003C3C" stroke-width="2.25" stroke-miterlimit="10"/>
<path d="M141.407 133.984V146.668" stroke="#003C3C" stroke-width="2.25" stroke-miterlimit="10"/>
<path d="M124.317 136.09H121.823C119.712 136.09 118.001 137.789 118.001 139.884V142.361C118.001 144.456 119.712 146.155 121.823 146.155H124.317C126.428 146.155 128.139 144.456 128.139 142.361V139.884C128.139 137.789 126.428 136.09 124.317 136.09Z" fill="#FDE999"/>
<path d="M124.317 136.09H121.823C119.712 136.09 118.001 137.789 118.001 139.884V142.361C118.001 144.456 119.712 146.155 121.823 146.155H124.317C126.428 146.155 128.139 144.456 128.139 142.361V139.884C128.139 137.789 126.428 136.09 124.317 136.09Z" fill="#FDE999"/>
<path opacity="0.6" d="M105.78 95.0864L149.002 111.572V79.1762C149.002 79.1762 148.866 75.3584 145.156 75.3584C141.446 75.3584 108.45 75.5398 108.45 75.5398C108.45 75.5398 105.772 76.8256 105.772 79.1762V95.0864H105.78Z" fill="#003C3C"/>
<path d="M106.876 2.00781H41.6395C38.0546 2.00781 35.1484 4.89313 35.1484 8.45235V144.647C35.1484 148.207 38.0546 151.092 41.6395 151.092H106.876C110.461 151.092 113.368 148.207 113.368 144.647V8.45235C113.368 4.89313 110.461 2.00781 106.876 2.00781Z" fill="white" stroke="#003C3C" stroke-width="3.63" stroke-miterlimit="10"/>
<path d="M106.876 2.00781H41.6395C38.0546 2.00781 35.1484 4.89313 35.1484 8.45235V144.647C35.1484 148.207 38.0546 151.092 41.6395 151.092H106.876C110.461 151.092 113.368 148.207 113.368 144.647V8.45235C113.368 4.89313 110.461 2.00781 106.876 2.00781Z" fill="white" stroke="#003C3C" stroke-width="3.63" stroke-miterlimit="10"/>
<path d="M75.2532 38.9247C74.9036 39.3507 69.493 45.6217 52.2681 48.5718C52.2522 48.5718 52.2363 48.5955 52.2363 48.6112V67.9133C52.2919 68.079 60.1814 87.8149 74.4189 92.6266C74.4189 92.6266 91.6597 89.4004 100.145 66.4856V48.9662C100.145 48.9662 100.145 48.9268 100.113 48.9268C99.5253 48.8873 90.2455 48.0827 75.3008 38.9168C75.2849 38.9089 75.2611 38.901 75.2532 38.9168V38.9247Z" fill="#003C3C" stroke="#004566" stroke-width="3.33" stroke-miterlimit="10"/>
<path d="M75.3096 40.8571C74.9838 41.2515 69.9625 47.0728 53.9771 49.8021C53.9612 49.8021 53.9453 49.8179 53.9453 49.8415V67.7553C53.993 67.9052 61.3183 86.2212 74.5309 90.6938C74.5309 90.6938 90.5323 87.7042 98.4058 66.4301V50.1728C98.4058 50.1728 98.4058 50.1413 98.382 50.1334C97.8338 50.094 89.2214 49.3525 75.3572 40.8492C75.3413 40.8413 75.3255 40.8413 75.3096 40.8492V40.8571Z" fill="#003C3C"/>
<path d="M76.1897 78.9247C83.5044 78.9247 89.4341 73.0376 89.4341 65.7754C89.4341 58.5132 83.5044 52.626 76.1897 52.626C68.875 52.626 62.9453 58.5132 62.9453 65.7754C62.9453 73.0376 68.875 78.9247 76.1897 78.9247Z" fill="#00DC82"/>
<path d="M70.1725 65.7737L72.8024 68.3847L82.8052 58.4536L84.4578 60.0864L72.5084 71.9501L67.9082 67.3829L70.1725 65.7737Z" fill="white"/>
<path d="M36.5547 22.2572H111.882V8.72127C111.882 8.72127 112.486 2.39505 105.629 2.39505H44.1025C44.1025 2.39505 36.5547 2.32406 36.5547 8.72127V22.2572Z" fill="#F2F2F2"/>
<path d="M100.537 12.3418H106.432" stroke="#231F20" stroke-width="0.72" stroke-miterlimit="10"/>
<path d="M100.537 13.667H106.432" stroke="#231F20" stroke-width="0.72" stroke-miterlimit="10"/>
<path d="M100.537 15.0005H106.432" stroke="#231F20" stroke-width="0.72" stroke-miterlimit="10"/>
<path d="M43.756 12.3418L41.6982 13.667L43.756 15.0001" stroke="#231F20" stroke-width="0.72" stroke-miterlimit="10"/>
<path d="M61.0713 2.00789V5.66005C61.0713 6.12545 61.4527 6.50408 61.9214 6.50408H86.416C86.8848 6.50408 87.2661 6.12545 87.2661 5.66005V2H61.0792L61.0713 2.00789Z" fill="#003C3C"/>
<path d="M92.5308 111.55H63.285C61.0911 111.55 59.3125 113.316 59.3125 115.494V118.326C59.3125 120.504 61.0911 122.27 63.285 122.27H92.5308C94.7247 122.27 96.5033 120.504 96.5033 118.326V115.494C96.5033 113.316 94.7247 111.55 92.5308 111.55Z" fill="#00DC82"/>
<path d="M68.6311 121V113.727H71.5004C72.0521 113.727 72.522 113.833 72.9102 114.043C73.2985 114.252 73.5944 114.542 73.798 114.913C74.004 115.283 74.107 115.709 74.107 116.192C74.107 116.675 74.0028 117.101 73.7945 117.47C73.5861 117.839 73.2843 118.127 72.8889 118.333C72.4959 118.539 72.0201 118.642 71.4614 118.642H69.6325V117.41H71.2128C71.5087 117.41 71.7526 117.359 71.9443 117.257C72.1385 117.153 72.2829 117.01 72.3776 116.827C72.4746 116.643 72.5232 116.431 72.5232 116.192C72.5232 115.95 72.4746 115.74 72.3776 115.56C72.2829 115.377 72.1385 115.237 71.9443 115.137C71.7502 115.035 71.504 114.984 71.2057 114.984H70.1688V121H68.6311ZM75.5194 121H73.8717L76.3824 113.727H78.3639L80.871 121H79.2233L77.4015 115.389H77.3447L75.5194 121ZM75.4165 118.141H79.3085V119.342H75.4165V118.141ZM80.578 113.727H82.3003L83.9587 116.859H84.0297L85.6881 113.727H87.4104L84.7577 118.429V121H83.2307V118.429L80.578 113.727Z" fill="#003C3C"/>
<path d="M45.7625 19.3701H0.714078C0.319164 19.3701 -0.000976562 19.688 -0.000976562 20.08V33.4108C-0.000976562 33.8029 0.319164 34.1208 0.714078 34.1208H45.7625C46.1575 34.1208 46.4776 33.8029 46.4776 33.4108V20.08C46.4776 19.688 46.1575 19.3701 45.7625 19.3701Z" fill="#00DC82"/>
<path d="M10.6156 29.5182L10.7221 27.8691L9.34144 28.7938L8.77042 27.7881L10.2576 27.0637L8.77042 26.3393L9.34144 25.3336L10.7221 26.2583L10.6156 24.6092H11.7619L11.6511 26.2583L13.0318 25.3336L13.6028 26.3393L12.1199 27.0637L13.6028 27.7881L13.0318 28.7938L11.6511 27.8691L11.7619 29.5182H10.6156ZM19.189 29.5182L19.2956 27.8691L17.9149 28.7938L17.3439 27.7881L18.8311 27.0637L17.3439 26.3393L17.9149 25.3336L19.2956 26.2583L19.189 24.6092H20.3353L20.2245 26.2583L21.6052 25.3336L22.1762 26.3393L20.6933 27.0637L22.1762 27.7881L21.6052 28.7938L20.2245 27.8691L20.3353 29.5182H19.189ZM27.7625 29.5182L27.869 27.8691L26.4883 28.7938L25.9173 27.7881L27.4045 27.0637L25.9173 26.3393L26.4883 25.3336L27.869 26.2583L27.7625 24.6092H28.9088L28.798 26.2583L30.1787 25.3336L30.7497 26.3393L29.2667 27.0637L30.7497 27.7881L30.1787 28.7938L28.798 27.8691L28.9088 29.5182H27.7625ZM10.6156 44.5182L10.7221 42.8691L9.34144 43.7938L8.77042 42.7881L10.2576 42.0637L8.77042 41.3393L9.34144 40.3336L10.7221 41.2583L10.6156 39.6092H11.7619L11.6511 41.2583L13.0318 40.3336L13.6028 41.3393L12.1199 42.0637L13.6028 42.7881L13.0318 43.7938L11.6511 42.8691L11.7619 44.5182H10.6156ZM19.189 44.5182L19.2956 42.8691L17.9149 43.7938L17.3439 42.7881L18.8311 42.0637L17.3439 41.3393L17.9149 40.3336L19.2956 41.2583L19.189 39.6092H20.3353L20.2245 41.2583L21.6052 40.3336L22.1762 41.3393L20.6933 42.0637L22.1762 42.7881L21.6052 43.7938L20.2245 42.8691L20.3353 44.5182H19.189Z" fill="black"/>
<path d="M30.0938 130.134V124.21C30.0938 119.462 33.0573 115.1 37.6098 113.625C38.1103 113.467 38.6267 113.341 39.2385 113.27C45.2609 112.552 50.5046 117.387 50.5046 123.406V130.142" stroke="#353535" stroke-width="6" stroke-miterlimit="10"/>
<path d="M56.741 130.134H23.8564V157.04H56.741V130.134Z" fill="#417A79"/>
<path d="M53.5448 130.134C53.5448 130.134 54.1486 137.312 53.2747 143.354C52.8377 146.375 51.5506 149.207 49.5484 151.518L44.7734 157.04H56.7466V130.134H53.5448Z" fill="#003C3C"/>
<path d="M39.504 143.142C41.189 143.142 42.5549 141.785 42.5549 140.112C42.5549 138.44 41.189 137.083 39.504 137.083C37.8191 137.083 36.4531 138.44 36.4531 140.112C36.4531 141.785 37.8191 143.142 39.504 143.142Z" fill="white"/>
<path d="M40.5027 142.172H38.5244V152.442H40.5027V142.172Z" fill="white"/>
<path d="M123.158 58.4542C128.564 58.4542 132.947 54.241 132.947 49.0437C132.947 43.8465 128.564 39.6333 123.158 39.6333C117.752 39.6333 113.37 43.8465 113.37 49.0437C113.37 54.241 117.752 58.4542 123.158 58.4542Z" fill="#CD7B0D"/>
<path d="M122.996 56.2218C126.871 56.2218 130.011 53.1034 130.011 49.2567C130.011 45.4099 126.871 42.2915 122.996 42.2915C119.121 42.2915 115.98 45.4099 115.98 49.2567C115.98 53.1034 119.121 56.2218 122.996 56.2218Z" fill="#F5BF38"/>
<path d="M122.102 57.2565C126.644 57.2565 130.325 53.6013 130.325 49.0924C130.325 44.5834 126.644 40.9282 122.102 40.9282C117.561 40.9282 113.879 44.5834 113.879 49.0924C113.879 53.6013 117.561 57.2565 122.102 57.2565Z" stroke="#F8DC61" stroke-width="4" stroke-miterlimit="10"/>
<path opacity="0.5" d="M123.996 40.3732L123.375 39.9761L114.238 54.0623L114.86 54.4594L123.996 40.3732Z" fill="#FFE783"/>
<path opacity="0.5" d="M130.013 44.1599L129.392 43.7627L120.255 57.8489L120.876 58.2461L130.013 44.1599Z" fill="#FFE783"/>
<path opacity="0.5" d="M127.144 41.4354L125.795 40.5728L115.837 55.9257L117.186 56.7883L127.144 41.4354Z" fill="#FFE783"/>
<path d="M120.997 45.5566H124.628L124.326 46.1246H123.516C123.532 46.1719 123.683 46.5505 123.683 46.7241C123.683 46.732 123.683 46.7398 123.698 46.7398H124.628L124.215 47.3867H123.659C123.659 47.3867 123.516 48.8223 121.823 48.8696L124.024 51.7882H123.079L120.997 49.0589V48.5147C120.997 48.5147 122.602 48.6251 122.856 47.3946L120.64 47.3788L121.021 46.7477H122.713L122.721 46.732C122.713 46.6846 122.642 46.4401 122.252 46.1877C122.173 46.1325 122.07 46.1088 121.966 46.1088H120.64L120.997 45.5566Z" fill="#D89B0F"/>
<path d="M120.709 45.5566H124.34L124.038 46.1246H123.228C123.244 46.1719 123.395 46.5505 123.395 46.7241C123.395 46.732 123.395 46.7398 123.41 46.7398H124.34L123.927 47.3867H123.371C123.371 47.3867 123.228 48.8223 121.535 48.8696L123.736 51.7882H122.791L120.709 49.0589V48.5147C120.709 48.5147 122.314 48.6251 122.568 47.3946L120.352 47.3788L120.733 46.7477H122.425L122.433 46.732C122.425 46.6846 122.354 46.4401 121.964 46.1877C121.885 46.1325 121.782 46.1088 121.678 46.1088H120.352L120.709 45.5566Z" fill="#FFE783"/>
<path d="M116.445 43.5157C116.445 43.5157 116.183 45.535 114.976 45.5035C114.976 45.5035 116.477 45.7638 116.445 47.6096C116.445 47.6096 116.374 45.8506 117.876 45.5587C117.876 45.5587 116.708 45.2984 116.445 43.5078V43.5157Z" fill="white"/>
<path d="M126.976 51.0093C126.976 51.0093 126.705 53.0996 125.458 53.0681C125.458 53.0681 127.007 53.3363 126.976 55.2452C126.976 55.2452 126.904 53.423 128.453 53.1312C128.453 53.1312 127.246 52.863 126.976 51.0172V51.0093Z" fill="white"/>
<path d="M117.614 42.5986C117.614 42.5986 117.494 43.4979 116.954 43.49C116.954 43.49 117.621 43.6083 117.614 44.4287C117.614 44.4287 117.582 43.6399 118.249 43.5136C118.249 43.5136 117.725 43.3953 117.614 42.5986Z" fill="white"/>
<path d="M25.1381 85.9605C31.3909 85.9605 36.4598 81.0869 36.4598 75.075C36.4598 69.0631 31.3909 64.1895 25.1381 64.1895C18.8853 64.1895 13.8164 69.0631 13.8164 75.075C13.8164 81.0869 18.8853 85.9605 25.1381 85.9605Z" fill="#CD7B0D"/>
<path d="M24.9547 83.3813C29.4348 83.3813 33.0666 79.7756 33.0666 75.3276C33.0666 70.8797 29.4348 67.2739 24.9547 67.2739C20.4746 67.2739 16.8428 70.8797 16.8428 75.3276C16.8428 79.7756 20.4746 83.3813 24.9547 83.3813Z" fill="#F5BF38"/>
<path d="M23.9214 84.573C29.1737 84.573 33.4316 80.3456 33.4316 75.131C33.4316 69.9163 29.1737 65.689 23.9214 65.689C18.669 65.689 14.4111 69.9163 14.4111 75.131C14.4111 80.3456 18.669 84.573 23.9214 84.573Z" stroke="#F8DC61" stroke-width="4" stroke-miterlimit="10"/>
<path opacity="0.5" d="M26.1111 65.0447L25.3896 64.5835L14.8207 80.8781L15.5421 81.3394L26.1111 65.0447Z" fill="#FFE783"/>
<path opacity="0.5" d="M33.0652 69.428L32.3438 68.9668L21.7748 85.2614L22.4962 85.7227L33.0652 69.428Z" fill="#FFE783"/>
<path opacity="0.5" d="M29.7525 66.2772L28.1895 65.2778L16.6698 83.0381L18.2329 84.0375L29.7525 66.2772Z" fill="#FFE783"/>
<path d="M22.6307 71.0435H26.8336L26.492 71.6982H25.5624C25.5862 71.7534 25.7531 72.1951 25.7531 72.3923C25.7531 72.4002 25.7531 72.4081 25.7689 72.4081H26.8415L26.3648 73.1574H25.7213C25.7213 73.1574 25.5544 74.8218 23.5999 74.8692L26.1503 78.2531H25.0539L22.6465 75.0979V74.4669C22.6465 74.4669 24.5057 74.5931 24.7997 73.1732L22.2413 73.1574L22.6783 72.4317H24.6328C24.6328 72.4317 24.6408 72.416 24.6408 72.4081C24.6249 72.3529 24.5454 72.0689 24.1005 71.777C24.0051 71.7139 23.886 71.6824 23.7747 71.6824H22.2334L22.6465 71.0435H22.6307Z" fill="#D89B0F"/>
<path d="M22.3123 71.0435H26.5152L26.1736 71.6982H25.244C25.2679 71.7534 25.4347 72.1951 25.4347 72.3923C25.4347 72.4002 25.4347 72.4081 25.4506 72.4081H26.5232L26.0465 73.1574H25.4029C25.4029 73.1574 25.2361 74.8218 23.2816 74.8692L25.832 78.2531H24.7355L22.3282 75.0979V74.4669C22.3282 74.4669 24.1873 74.5931 24.4813 73.1732L21.923 73.1574L22.36 72.4317H24.3144C24.3144 72.4317 24.3224 72.416 24.3224 72.4081C24.3065 72.3529 24.2271 72.0689 23.7821 71.777C23.6868 71.7139 23.5676 71.6824 23.4564 71.6824H21.915L22.3282 71.0435H22.3123Z" fill="#FFE783"/>
<path d="M17.3672 68.6787C17.3672 68.6787 17.0653 71.0136 15.667 70.982C15.667 70.982 17.399 71.2818 17.3672 73.4194C17.3672 73.4194 17.2878 71.3843 19.0198 71.053C19.0198 71.053 17.6691 70.7533 17.3672 68.6866V68.6787Z" fill="white"/>
<path d="M29.5654 77.3535C29.5654 77.3535 29.2556 79.7673 27.8096 79.7357C27.8096 79.7357 29.6052 80.0433 29.5654 82.252C29.5654 82.252 29.478 80.1459 31.2736 79.8067C31.2736 79.8067 29.8753 79.4991 29.5654 77.3614V77.3535Z" fill="white"/>
<path d="M18.7266 67.6211C18.7266 67.6211 18.5915 68.6623 17.9639 68.6465C17.9639 68.6465 18.7345 68.7806 18.7266 69.7351C18.7266 69.7351 18.6869 68.828 19.4655 68.6781C19.4655 68.6781 18.8617 68.544 18.7266 67.6211Z" fill="white"/>
<path d="M107.428 162C116.88 162 124.542 154.63 124.542 145.538C124.542 136.446 116.88 129.076 107.428 129.076C97.9765 129.076 90.3145 136.446 90.3145 145.538C90.3145 154.63 97.9765 162 107.428 162Z" fill="#CD7B0D"/>
<path d="M107.146 158.105C113.921 158.105 119.413 152.653 119.413 145.926C119.413 139.2 113.921 133.747 107.146 133.747C100.371 133.747 94.8789 139.2 94.8789 145.926C94.8789 152.653 100.371 158.105 107.146 158.105Z" fill="#F5BF38"/>
<path d="M105.571 159.902C113.513 159.902 119.952 153.51 119.952 145.625C119.952 137.739 113.513 131.347 105.571 131.347C97.6288 131.347 91.1904 137.739 91.1904 145.625C91.1904 153.51 97.6288 159.902 105.571 159.902Z" stroke="#F8DC61" stroke-width="4" stroke-miterlimit="10"/>
<path opacity="0.5" d="M108.89 130.372L107.801 129.676L91.8204 154.313L92.9093 155.01L108.89 130.372Z" fill="#FFE783"/>
<path opacity="0.5" d="M119.402 137.012L118.313 136.315L102.333 160.953L103.422 161.649L119.402 137.012Z" fill="#FFE783"/>
<path opacity="0.5" d="M114.393 132.231L112.028 130.719L94.6113 157.572L96.9759 159.084L114.393 132.231Z" fill="#FFE783"/>
<path d="M103.613 139.45H109.961L109.436 140.436H108.022C108.022 140.436 108.014 140.436 108.022 140.444C108.054 140.531 108.308 141.193 108.308 141.493C108.308 141.509 108.316 141.517 108.332 141.517H109.961L109.238 142.653H108.269C108.269 142.653 108.022 145.169 105.067 145.248L108.92 150.359H107.26L103.621 145.587V144.633C103.621 144.633 106.425 144.822 106.87 142.676L103.001 142.653L103.668 141.548L106.624 141.533C106.624 141.533 106.64 141.533 106.64 141.517C106.624 141.43 106.497 141.004 105.821 140.562C105.678 140.468 105.504 140.42 105.329 140.42H103.001L103.621 139.45H103.613Z" fill="#D89B0F"/>
<path d="M103.128 139.45H109.476L108.952 140.436H107.538C107.538 140.436 107.53 140.436 107.538 140.444C107.57 140.531 107.824 141.193 107.824 141.493C107.824 141.509 107.832 141.517 107.848 141.517H109.476L108.753 142.653H107.784C107.784 142.653 107.538 145.169 104.582 145.248L108.436 150.359H106.775L103.136 145.587V144.633C103.136 144.633 105.941 144.822 106.386 142.676L102.517 142.653L103.184 141.548L106.14 141.533C106.14 141.533 106.155 141.533 106.155 141.517C106.14 141.43 106.012 141.004 105.337 140.562C105.194 140.468 105.019 140.42 104.845 140.42H102.517L103.136 139.45H103.128Z" fill="#FFE783"/>
<path d="M95.6699 135.868C95.6699 135.868 95.217 139.402 93.0957 139.346C93.0957 139.346 95.7176 139.796 95.6699 143.03C95.6699 143.03 95.5428 139.946 98.1646 139.449C98.1646 139.449 96.1228 138.999 95.6699 135.868Z" fill="white"/>
<path d="M114.114 148.987C114.114 148.987 113.645 152.639 111.452 152.584C111.452 152.584 114.161 153.049 114.114 156.386C114.114 156.386 113.987 153.199 116.696 152.686C116.696 152.686 114.583 152.221 114.114 148.987Z" fill="white"/>
<path d="M97.7282 134.266C97.7282 134.266 97.5216 135.844 96.5762 135.82C96.5762 135.82 97.7441 136.025 97.7282 137.461C97.7282 137.461 97.6726 136.088 98.8405 135.86C98.8405 135.86 97.9268 135.654 97.7282 134.258V134.266Z" fill="white"/>
</svg>
