<svg width="191" height="161" viewBox="0 0 191 161" fill="none" xmlns="http://www.w3.org/2000/svg">
<mask id="mask0_5103_359" style="mask-type:luminance" maskUnits="userSpaceOnUse" x="83" y="115" width="18" height="28">
<path d="M83.8613 115H100.978V143H83.8613V115Z" fill="white"/>
</mask>
<g mask="url(#mask0_5103_359)">
<path fill-rule="evenodd" clip-rule="evenodd" d="M84.416 118.907H99.6202V143H84.416V118.907Z" fill="#003C3C"/>
<path fill-rule="evenodd" clip-rule="evenodd" d="M84.416 118.907H99.6202V125.95H88.2538V143H84.416V118.907Z" fill="#025252"/>
</g>
<mask id="mask1_5103_359" style="mask-type:luminance" maskUnits="userSpaceOnUse" x="16" y="17" width="152" height="106">
<path d="M16.3301 17.1753H167.045V122.044H16.3301V17.1753Z" fill="white"/>
</mask>
<g mask="url(#mask1_5103_359)">
<path fill-rule="evenodd" clip-rule="evenodd" d="M26.6324 18.2271H156.721C162.387 18.2271 167.023 22.3625 167.023 27.4148V111.294C167.023 116.366 162.387 120.502 156.721 120.502H26.6324C20.9661 120.502 16.3301 116.366 16.3301 111.294V27.4148C16.3301 22.3625 20.9661 18.2271 26.6324 18.2271Z" fill="#003C3C"/>
</g>
<path fill-rule="evenodd" clip-rule="evenodd" d="M26.9964 22.6309H156.393C159.574 22.6309 162.179 24.9592 162.179 27.8115V111.245C162.179 114.097 159.574 116.426 156.393 116.426H26.9964C23.8154 116.426 21.1895 114.097 21.1895 111.245V27.8115C21.1895 24.9592 23.8154 22.6309 26.9964 22.6309Z" fill="#E2F0FA"/>
<mask id="mask2_5103_359" style="mask-type:luminance" maskUnits="userSpaceOnUse" x="65" y="141" width="54" height="12">
<path d="M65.9941 141.686H118.848V152.091H65.9941V141.686Z" fill="white"/>
</mask>
<g mask="url(#mask2_5103_359)">
<path fill-rule="evenodd" clip-rule="evenodd" d="M67.1973 142.128H116.467V152.09H67.1973V142.128Z" fill="#003C3C"/>
</g>
<path fill-rule="evenodd" clip-rule="evenodd" d="M46.2832 83.4902H137.086V96.9631H46.2832V83.4902Z" fill="#D0E4F2"/>
<path d="M61.9884 90.7147V90.8218C61.9884 92.0007 60.9271 92.9474 59.63 92.9474C58.3132 92.9474 57.252 92.0007 57.252 90.8218V90.7147C57.252 89.5536 58.3132 88.6069 59.63 88.6069C60.9271 88.6069 61.9884 89.5536 61.9884 90.7147ZM68.7885 88.6069C67.4717 88.6069 66.4104 89.5536 66.4104 90.7147V90.8218C66.4104 92.0007 67.4717 92.9474 68.7885 92.9474C70.0856 92.9474 71.1469 92.0007 71.1469 90.8218V90.7147C71.1469 89.5536 70.1053 88.6069 68.7885 88.6069ZM77.947 88.6069C76.6499 88.6069 75.5886 89.5536 75.5886 90.7147V90.8218C75.5886 92.0007 76.6499 92.9474 77.947 92.9474C79.2638 92.9474 80.325 92.0007 80.325 90.8218V90.7147C80.325 89.5536 79.2638 88.6069 77.947 88.6069ZM87.1251 88.6069C85.8083 88.6069 84.7471 89.5536 84.7471 90.7147V90.8218C84.7471 92.0007 85.8083 92.9474 87.1251 92.9474C88.4222 92.9474 89.4835 92.0007 89.4835 90.8218V90.7147C89.4835 89.5536 88.4222 88.6069 87.1251 88.6069ZM96.2836 88.6069C94.9668 88.6069 93.9055 89.5536 93.9055 90.7147V90.8218C93.9055 92.0007 94.9668 92.9474 96.2836 92.9474C97.5807 92.9474 98.642 92.0007 98.642 90.8218V90.7147C98.642 89.5536 97.5807 88.6069 96.2836 88.6069ZM105.442 88.6069C104.125 88.6069 103.064 89.5536 103.064 90.7147V90.8218C103.064 92.0007 104.125 92.9474 105.442 92.9474C106.739 92.9474 107.8 92.0007 107.8 90.8218V90.7147C107.8 89.5536 106.739 88.6069 105.442 88.6069ZM114.601 88.6069C113.284 88.6069 112.223 89.5536 112.223 90.7147V90.8218C112.223 92.0007 113.284 92.9474 114.601 92.9474C115.917 92.9474 116.979 92.0007 116.979 90.8218V90.7147C116.979 89.5536 115.898 88.6069 114.601 88.6069ZM123.759 88.6069C122.442 88.6069 121.381 89.5536 121.381 90.7147V90.8218C121.381 92.0007 122.442 92.9474 123.759 92.9474C125.076 92.9474 126.137 92.0007 126.137 90.8218V90.7147C126.137 89.5536 125.076 88.6069 123.759 88.6069Z" fill="#00DC82"/>
<path fill-rule="evenodd" clip-rule="evenodd" d="M164.798 103.439V111.695C164.798 114.498 162.119 116.786 158.848 116.786H25.756C22.4841 116.786 19.7832 114.498 19.7832 111.695V103.439H164.798Z" fill="#003C3C"/>
<mask id="mask3_5103_359" style="mask-type:luminance" maskUnits="userSpaceOnUse" x="70" y="0" width="49" height="45">
<path d="M70.1895 0.5H118.317V44.241H70.1895V0.5Z" fill="white"/>
</mask>
<g mask="url(#mask3_5103_359)">
<path fill-rule="evenodd" clip-rule="evenodd" d="M93.8083 42.66C77.3656 36.8373 70.3952 25.3076 72.1161 8.50783L93.8083 0.5L115.501 8.50783C117.221 25.3076 110.222 36.8373 93.8083 42.66Z" fill="#003C3C"/>
</g>
<path fill-rule="evenodd" clip-rule="evenodd" d="M93.7844 39.9803C108.466 34.2749 113.582 23.7259 112.64 10.0174L93.7844 2.96729L74.9147 10.0174C73.9726 23.7259 79.1031 34.2749 93.7844 39.9803Z" fill="#00DC82"/>
<path d="M102.569 17.773H99.1322V14.2985C99.1322 11.5961 96.7223 9.39952 93.7847 9.39952C90.8329 9.39952 88.423 11.5961 88.423 14.2985V17.773H84.9863V14.2985C84.9863 9.86545 88.9363 6.25781 93.7847 6.25781C98.6188 6.25781 102.569 9.86545 102.569 14.2985V17.773Z" fill="#003C3C"/>
<path fill-rule="evenodd" clip-rule="evenodd" d="M85.5365 16.9507H102.041C102.837 16.9507 103.506 17.5353 103.506 18.2342V30.485C103.506 31.184 102.837 31.7559 102.041 31.7559H85.5365C84.7262 31.7559 84.0723 31.184 84.0723 30.485V18.2342C84.0723 17.5353 84.7262 16.9507 85.5365 16.9507Z" fill="#003C3C"/>
<path d="M93.7799 21.8848C91.9913 21.8848 90.541 22.987 90.541 24.3523C90.541 25.7051 91.9913 26.8198 93.7799 26.8198C95.5524 26.8198 97.0188 25.7051 97.0188 24.3523C97.0188 22.987 95.5524 21.8848 93.7799 21.8848Z" fill="#00DC82"/>
<path fill-rule="evenodd" clip-rule="evenodd" d="M85.5674 16.9507H87.7738C86.9464 16.9507 86.2787 17.5353 86.2787 18.2342V30.485C86.2787 31.184 86.9464 31.7559 87.7738 31.7559H85.5674C84.74 31.7559 84.0723 31.184 84.0723 30.485V18.2342C84.0723 17.5353 84.74 16.9507 85.5674 16.9507Z" fill="#285252"/>
<mask id="mask4_5103_359" style="mask-type:luminance" maskUnits="userSpaceOnUse" x="134" y="144" width="23" height="12">
<path d="M134.775 144.572H156.906V155.1H134.775V144.572Z" fill="white"/>
</mask>
<g mask="url(#mask4_5103_359)">
<path d="M144.893 151.838L154.213 146.971L153.742 146.725L144.878 151.344L141.796 149.74L134.799 153.4L135.269 153.633L141.781 150.234L144.893 151.838Z" fill="#4C5671"/>
<path d="M156.009 147.903L155.539 147.657L145.05 153.126L142.469 151.796L137.111 154.593L137.597 154.84L142.485 152.29L145.05 153.62L156.009 147.903Z" fill="#4C5671"/>
</g>
<path d="M157.185 148.521L141.338 156.8L141.808 157.033L157.655 148.767L157.185 148.521Z" fill="#4C5671"/>
<mask id="mask5_5103_359" style="mask-type:luminance" maskUnits="userSpaceOnUse" x="145" y="148" width="16" height="13">
<path d="M145.244 148.081H160.787V160.5H145.244V148.081Z" fill="white"/>
</mask>
<g mask="url(#mask5_5103_359)">
<path d="M148.874 155.113L159.363 149.643L158.877 149.383L147.918 155.099L150.498 156.442L145.596 158.992L146.081 159.239L151.44 156.442L148.874 155.113Z" fill="#4C5671"/>
</g>
<mask id="mask6_5103_359" style="mask-type:luminance" maskUnits="userSpaceOnUse" x="145" y="148" width="20" height="13">
<path d="M145.244 148.081H164.673V160.5H145.244V148.081Z" fill="white"/>
</mask>
<g mask="url(#mask6_5103_359)">
<path d="M161.121 150.562L160.651 150.315L151.316 155.181L154.412 156.785L147.9 160.198L148.371 160.431L155.368 156.785L152.272 155.181L161.121 150.562Z" fill="#4C5671"/>
</g>
<mask id="mask7_5103_359" style="mask-type:luminance" maskUnits="userSpaceOnUse" x="168" y="137" width="23" height="12">
<path d="M168.564 137.553H190.498V148.08H168.564V137.553Z" fill="white"/>
</mask>
<g mask="url(#mask7_5103_359)">
<path d="M180.376 140.006L171.057 144.872L171.527 145.133L180.376 140.513L183.473 142.103L190.47 138.457L190 138.21L183.473 141.61L180.376 140.006Z" fill="#4C5671"/>
</g>
<mask id="mask8_5103_359" style="mask-type:luminance" maskUnits="userSpaceOnUse" x="168" y="134" width="23" height="11">
<path d="M168.564 134.045H190.498V144.573H168.564V134.045Z" fill="white"/>
</mask>
<g mask="url(#mask8_5103_359)">
<path d="M169.268 143.956L169.738 144.203L180.227 138.733L182.792 140.063L188.165 137.267L187.68 137.02L182.792 139.57L180.212 138.24L169.268 143.956Z" fill="#4C5671"/>
</g>
<path d="M168.066 143.324L183.913 135.059L183.442 134.812L167.596 143.091L168.066 143.324Z" fill="#4C5671"/>
<path d="M176.405 136.744L165.916 142.213L166.402 142.46L177.346 136.744L174.78 135.415L179.683 132.865L179.198 132.618L173.839 135.415L176.405 136.744Z" fill="#4C5671"/>
<path d="M164.143 141.296L164.613 141.543L173.948 136.676L170.836 135.059L177.363 131.659L176.893 131.413L169.895 135.073L172.992 136.676L164.143 141.296Z" fill="#4C5671"/>
<mask id="mask9_5103_359" style="mask-type:luminance" maskUnits="userSpaceOnUse" x="168" y="144" width="23" height="12">
<path d="M168.564 144.573H190.498V155.101H168.564V144.573Z" fill="white"/>
</mask>
<g mask="url(#mask9_5103_359)">
<path d="M180.384 151.838L171.064 146.972L171.535 146.725L180.384 151.345L183.481 149.741L190.478 153.401L190.008 153.634L183.481 150.234L180.384 151.838Z" fill="#4C5671"/>
<path d="M169.268 147.903L169.738 147.657L180.227 153.126L182.792 151.796L188.165 154.593L187.68 154.84L182.792 152.29L180.212 153.62L169.268 147.903Z" fill="#4C5671"/>
</g>
<path d="M168.066 148.521L183.913 156.8L183.442 157.033L167.596 148.767L168.066 148.521Z" fill="#4C5671"/>
<mask id="mask10_5103_359" style="mask-type:luminance" maskUnits="userSpaceOnUse" x="164" y="148" width="17" height="13">
<path d="M164.65 148.08H180.194V160.499H164.65V148.08Z" fill="white"/>
</mask>
<g mask="url(#mask10_5103_359)">
<path d="M176.397 155.113L165.908 149.643L166.394 149.383L177.338 155.099L174.773 156.442L179.675 158.992L179.19 159.239L173.832 156.442L176.397 155.113Z" fill="#4C5671"/>
</g>
<mask id="mask11_5103_359" style="mask-type:luminance" maskUnits="userSpaceOnUse" x="160" y="148" width="21" height="13">
<path d="M160.799 148.081H180.228V160.5H160.799V148.081Z" fill="white"/>
</mask>
<g mask="url(#mask11_5103_359)">
<path d="M164.135 150.563L164.605 150.316L173.94 155.182L170.829 156.786L177.356 160.199L176.885 160.432L169.888 156.786L172.984 155.182L164.135 150.563Z" fill="#4C5671"/>
</g>
<mask id="mask12_5103_359" style="mask-type:luminance" maskUnits="userSpaceOnUse" x="134" y="137" width="23" height="12">
<path d="M134.775 137.553H156.906V148.08H134.775V137.553Z" fill="white"/>
</mask>
<g mask="url(#mask12_5103_359)">
<path d="M144.893 140.006L154.213 144.872L153.742 145.133L144.878 140.513L141.796 142.103L134.799 138.457L135.269 138.21L141.781 141.61L144.893 140.006Z" fill="#4C5671"/>
</g>
<mask id="mask13_5103_359" style="mask-type:luminance" maskUnits="userSpaceOnUse" x="134" y="134" width="23" height="11">
<path d="M134.775 134.045H156.906V144.573H134.775V134.045Z" fill="white"/>
</mask>
<g mask="url(#mask13_5103_359)">
<path d="M155.986 143.956L155.515 144.203L145.026 138.733L142.446 140.063L137.088 137.267L137.574 137.02L142.461 139.57L145.026 138.24L155.986 143.956Z" fill="#4C5671"/>
</g>
<path d="M157.185 143.324L141.338 135.059L141.808 134.812L157.655 143.091L157.185 143.324Z" fill="#4C5671"/>
<path d="M148.859 136.744L159.347 142.213L158.862 142.46L147.902 136.744L150.483 135.415L145.58 132.865L146.066 132.618L151.424 135.415L148.859 136.744Z" fill="#4C5671"/>
<path d="M161.129 141.296L160.658 141.543L151.323 136.676L154.42 135.059L147.908 131.659L148.379 131.413L155.376 135.073L152.28 136.676L161.129 141.296Z" fill="#4C5671"/>
<path d="M178.233 149.507L164.086 156.895C163.312 157.293 162.037 157.293 161.263 156.895L147.01 149.507C146.236 149.109 146.221 148.451 147.01 148.026L161.142 140.652C161.931 140.24 163.206 140.24 163.98 140.652L178.218 148.04C179.022 148.451 179.022 149.109 178.233 149.507Z" fill="#00DC82"/>
<path d="M178.218 148.039L163.98 140.651C163.206 140.253 161.931 140.24 161.142 140.651L147.01 148.039C146.221 148.437 146.236 149.109 147.01 149.506L161.263 156.894C162.037 157.292 163.312 157.292 164.086 156.894L178.233 149.506C179.022 149.109 179.007 148.451 178.218 148.039ZM177.93 149.04L163.783 156.415C163.191 156.73 162.159 156.716 161.567 156.415L147.314 149.026C147.086 148.917 147.025 148.807 147.025 148.766C147.025 148.725 147.086 148.629 147.314 148.505L161.46 141.131C161.749 140.98 162.159 140.898 162.569 140.898C162.963 140.898 163.373 140.98 163.677 141.131L177.914 148.505C178.127 148.615 178.203 148.725 178.203 148.78C178.203 148.821 178.127 148.93 177.93 149.04Z" fill="#003C3C"/>
<path d="M178.831 141.405L178.816 146.806C178.816 147.067 178.618 147.327 178.239 147.533L164.077 154.907C163.303 155.332 162.043 155.332 161.254 154.907L147.016 147.533C146.621 147.327 146.424 147.067 146.424 146.792V141.378C146.424 141.652 146.621 141.926 147.016 142.132L161.269 149.507C162.043 149.918 163.318 149.918 164.092 149.507L178.239 142.132C178.633 141.926 178.831 141.666 178.831 141.405Z" fill="#003C3C"/>
<path d="M178.218 140.651C179.007 141.062 179.022 141.72 178.233 142.131L164.086 149.506C163.312 149.917 162.037 149.917 161.263 149.506L147.01 142.118C146.236 141.72 146.221 141.062 147.01 140.651L161.142 133.276C161.931 132.865 163.206 132.865 163.98 133.276L178.218 140.651Z" fill="#00DC82"/>
<path d="M178.229 141.364L164.083 148.753C163.308 149.164 162.033 149.164 161.259 148.753L147.006 141.364C146.809 141.255 146.657 141.131 146.566 141.008C146.278 141.378 146.429 141.817 147.006 142.118L161.259 149.507C162.033 149.918 163.308 149.918 164.083 149.507L178.229 142.132C178.806 141.83 178.943 141.392 178.669 141.022C178.578 141.145 178.427 141.268 178.229 141.364Z" fill="#00DC82"/>
<path d="M167.666 150.027L167.681 151.988L168.47 151.576V149.616L167.666 150.027Z" fill="#7BB1FF"/>
<path d="M166.119 150.837V152.797L166.924 152.372L166.908 150.412L166.119 150.837Z" fill="#7BB1FF"/>
<path d="M164.564 151.631V153.592L165.369 153.18L165.354 151.22L164.564 151.631Z" fill="#7BB1FF"/>
<path d="M178.831 133.332L178.816 138.732C178.816 139.007 178.618 139.267 178.239 139.473L164.077 146.847C163.303 147.259 162.043 147.259 161.254 146.847L147.016 139.459C146.621 139.253 146.424 138.993 146.424 138.719V133.318C146.424 133.578 146.621 133.852 147.016 134.058L161.269 141.446C162.043 141.844 163.318 141.844 164.092 141.446L178.239 134.058C178.633 133.852 178.831 133.592 178.831 133.332Z" fill="#003C3C"/>
<path d="M178.218 132.592C179.007 132.989 179.022 133.647 178.233 134.059L164.086 141.433C163.312 141.844 162.037 141.844 161.263 141.433L147.01 134.059C146.236 133.647 146.221 132.989 147.01 132.578L161.142 125.203C161.931 124.792 163.206 124.792 163.98 125.203L178.218 132.592Z" fill="#00DC82"/>
<path d="M178.229 133.305L164.083 140.68C163.308 141.091 162.033 141.091 161.259 140.68L147.006 133.305C146.809 133.196 146.657 133.072 146.566 132.935C146.278 133.305 146.429 133.758 147.006 134.059L161.259 141.434C162.033 141.845 163.308 141.845 164.083 141.434L178.229 134.059C178.806 133.758 178.943 133.319 178.669 132.949C178.578 133.072 178.427 133.196 178.229 133.305Z" fill="#00DC82"/>
<path d="M167.666 141.967L167.681 143.913L168.47 143.502V141.556L167.666 141.967Z" fill="#7BB1FF"/>
<path d="M166.119 142.763V144.723L166.924 144.312L166.908 142.352L166.119 142.763Z" fill="#7BB1FF"/>
<path d="M164.564 143.557V145.517L165.369 145.106L165.354 143.146L164.564 143.557Z" fill="#7BB1FF"/>
<path d="M178.831 125.258L178.816 130.659C178.816 130.933 178.618 131.193 178.239 131.399L164.077 138.774C163.303 139.185 162.043 139.185 161.254 138.774L147.016 131.399C146.621 131.18 146.424 130.919 146.424 130.659V125.244C146.424 125.518 146.621 125.779 147.016 125.984L161.269 133.373C162.043 133.77 163.318 133.77 164.092 133.373L178.239 125.984C178.633 125.779 178.831 125.518 178.831 125.258Z" fill="#003C3C"/>
<mask id="mask14_5103_359" style="mask-type:luminance" maskUnits="userSpaceOnUse" x="145" y="116" width="36" height="19">
<path d="M145.244 116.759H180.216V134.044H145.244V116.759Z" fill="white"/>
</mask>
<g mask="url(#mask14_5103_359)">
<path d="M178.226 124.518C179.015 124.929 179.03 125.587 178.241 125.984L164.094 133.373C163.32 133.784 162.045 133.784 161.271 133.373L147.018 125.984C146.244 125.587 146.229 124.915 147.018 124.518L161.149 117.129C161.939 116.732 163.214 116.732 163.988 117.129L178.226 124.518Z" fill="#00DC82"/>
</g>
<path d="M152.963 125.381L162.556 120.378L172.286 125.422L162.693 130.426L152.963 125.381Z" fill="#003C3C"/>
<path d="M178.229 125.231L164.083 132.619C163.308 133.017 162.033 133.017 161.259 132.619L147.006 125.231C146.809 125.121 146.657 124.998 146.566 124.861C146.278 125.245 146.429 125.683 147.006 125.985L161.259 133.373C162.033 133.784 163.308 133.784 164.083 133.373L178.229 125.985C178.806 125.683 178.943 125.258 178.669 124.888C178.578 125.012 178.427 125.135 178.229 125.231Z" fill="#00DC82"/>
<path d="M167.666 133.894L167.681 135.854L168.47 135.443V133.482L167.666 133.894Z" fill="#7BB1FF"/>
<path d="M166.119 134.689V136.649L166.924 136.238L166.908 134.277L166.119 134.689Z" fill="#7BB1FF"/>
<path d="M164.564 135.497V137.457L165.369 137.046L165.354 135.086L164.564 135.497Z" fill="#7BB1FF"/>
<path d="M174.276 145.285C174.003 145.422 173.775 145.778 173.775 146.066C173.775 146.34 174.003 146.464 174.276 146.313C174.55 146.176 174.777 145.82 174.777 145.545C174.777 145.257 174.55 145.134 174.276 145.285Z" fill="#96D696"/>
<path d="M175.776 144.504C175.503 144.654 175.275 145.011 175.275 145.285C175.275 145.573 175.503 145.696 175.776 145.545C176.05 145.408 176.277 145.052 176.277 144.764C176.277 144.49 176.05 144.366 175.776 144.504Z" fill="#ED5D71"/>
<path d="M177.253 143.735C176.98 143.886 176.752 144.229 176.752 144.517C176.752 144.805 176.98 144.914 177.253 144.777C177.541 144.626 177.754 144.284 177.754 143.996C177.754 143.708 177.526 143.598 177.253 143.735Z" fill="#FFDD94"/>
<path d="M174.276 137.211C174.003 137.361 173.775 137.704 173.775 137.992C173.775 138.28 174.003 138.389 174.276 138.252C174.55 138.102 174.777 137.759 174.777 137.471C174.777 137.183 174.55 137.073 174.276 137.211Z" fill="#96D696"/>
<path d="M175.776 136.443C175.503 136.58 175.275 136.937 175.275 137.224C175.275 137.512 175.503 137.622 175.776 137.471C176.05 137.334 176.277 136.978 176.277 136.704C176.277 136.416 176.05 136.292 175.776 136.443Z" fill="#ED5D71"/>
<path d="M177.253 135.676C176.98 135.813 176.752 136.169 176.752 136.444C176.752 136.732 176.98 136.855 177.253 136.704C177.541 136.567 177.754 136.211 177.754 135.936C177.754 135.649 177.526 135.525 177.253 135.676Z" fill="#FFDD94"/>
<path d="M174.276 129.151C174.003 129.288 173.775 129.644 173.775 129.918C173.775 130.206 174.003 130.329 174.276 130.179C174.55 130.042 174.777 129.685 174.777 129.411C174.777 129.123 174.55 129 174.276 129.151Z" fill="#96D696"/>
<path d="M175.776 128.369C175.503 128.52 175.275 128.863 175.275 129.151C175.275 129.438 175.503 129.548 175.776 129.411C176.05 129.26 176.277 128.918 176.277 128.63C176.277 128.342 176.05 128.232 175.776 128.369Z" fill="#ED5D71"/>
<path d="M177.253 127.602C176.98 127.739 176.752 128.095 176.752 128.383C176.752 128.671 176.98 128.781 177.253 128.644C177.541 128.493 177.754 128.15 177.754 127.862C177.754 127.574 177.526 127.451 177.253 127.602Z" fill="#FFDD94"/>
<mask id="mask15_5103_359" style="mask-type:luminance" maskUnits="userSpaceOnUse" x="0" y="49" width="43" height="44">
<path d="M0.501953 49.2842H42.0669V92.586H0.501953V49.2842Z" fill="white"/>
</mask>
<g mask="url(#mask15_5103_359)">
<path d="M21.0671 91.4075C19.0659 90.9553 7.19676 85.7892 4.22564 80.445C0.977415 74.6075 2.87093 55.4094 2.87093 55.4094C2.87093 55.4094 15.8022 54.8476 21.0671 50.3804C26.3474 54.8476 39.2787 55.4094 39.2787 55.4094C39.2787 55.4094 41.1568 74.6075 37.924 80.445C34.9529 85.7892 23.0838 90.9553 21.0671 91.4075Z" fill="#14C962"/>
</g>
<mask id="mask16_5103_359" style="mask-type:luminance" maskUnits="userSpaceOnUse" x="0" y="48" width="42" height="45">
<path d="M0.501953 48.8447H41.5743V92.585H0.501953V48.8447Z" fill="white"/>
</mask>
<g mask="url(#mask16_5103_359)">
<mask id="mask17_5103_359" style="mask-type:luminance" maskUnits="userSpaceOnUse" x="0" y="48" width="42" height="45">
<path d="M21.0473 92.9423C20.9087 92.9423 20.7702 92.9286 20.6162 92.9012C19.4001 92.6134 15.7516 91.1198 12.0723 89.0643C8.74712 87.2007 4.43668 84.3093 2.66633 81.1302C1.20386 78.4855 0.495715 73.3057 0.58808 65.7142C0.649662 60.1919 1.12688 55.3136 1.12688 55.2725C1.20386 54.5051 1.89661 53.9159 2.75869 53.8747C2.78948 53.8747 5.91455 53.7377 9.64 53.0663C14.4123 52.2167 17.953 50.9012 19.8619 49.2705C20.2006 48.9964 20.6316 48.8457 21.0473 48.8457C21.4783 48.8457 21.9093 48.9964 22.248 49.2705C26.9895 53.2855 39.2281 53.861 39.3512 53.8747C40.1979 53.9159 40.9061 54.5051 40.983 55.2725C40.983 55.3136 41.4603 60.1919 41.5218 65.7142C41.6142 73.3057 40.906 78.4855 39.4436 81.1302C37.6732 84.3093 33.3474 87.2007 30.0376 89.0643C26.3583 91.1198 22.7099 92.6134 21.4783 92.9012C21.3398 92.9286 21.2012 92.9423 21.0473 92.9423ZM21.0473 50.3805C15.7824 54.8477 2.85106 55.4095 2.85106 55.4095C2.85106 55.4095 0.957545 74.6075 4.20577 80.4451C7.17689 85.7893 19.046 90.9554 21.0473 91.4076C23.0639 90.9554 34.933 85.7893 37.9041 80.4451C41.137 74.6075 39.2589 55.4095 39.2589 55.4095C39.2589 55.4095 26.3275 54.8477 21.0473 50.3805Z" fill="white"/>
</mask>
<g mask="url(#mask17_5103_359)">
<mask id="mask18_5103_359" style="mask-type:luminance" maskUnits="userSpaceOnUse" x="0" y="48" width="42" height="45">
<path d="M21.0394 92.9423C20.9009 92.9423 20.7623 92.9286 20.6084 92.9012C19.3922 92.6134 15.7438 91.1198 12.0645 89.0643C8.73931 87.2007 4.42887 84.3093 2.65851 81.1302C1.19604 78.4855 0.487903 73.3057 0.580267 65.7142C0.641849 60.1919 1.11907 55.3136 1.11907 55.2725C1.19604 54.5051 1.88879 53.9159 2.75088 53.8747C2.78167 53.8747 5.90673 53.7377 9.63218 53.0663C14.4044 52.2167 17.9452 50.9012 19.8541 49.2705C20.1927 48.9964 20.6238 48.8457 21.0394 48.8457C21.4705 48.8457 21.9015 48.9964 22.2402 49.2705C26.9817 53.2855 39.2202 53.861 39.3434 53.8747C40.1901 53.9159 40.8982 54.5051 40.9752 55.2725C40.9752 55.3136 41.4524 60.1919 41.514 65.7142C41.6064 73.3057 40.8982 78.4855 39.4358 81.1302C37.6654 84.3093 33.3396 87.2007 30.0298 89.0643C26.3505 91.1198 22.702 92.6134 21.4705 92.9012C21.3319 92.9286 21.1934 92.9423 21.0394 92.9423ZM21.0394 50.3805C15.7746 54.8477 2.84325 55.4095 2.84325 55.4095C2.84325 55.4095 0.949733 74.6075 4.19795 80.4451C7.16908 85.7893 19.0382 90.9554 21.0394 91.4076C23.0561 90.9554 34.9252 85.7893 37.8963 80.4451C41.1292 74.6075 39.251 55.4095 39.251 55.4095C39.251 55.4095 26.3197 54.8477 21.0394 50.3805Z" fill="white"/>
</mask>
<g mask="url(#mask18_5103_359)">
<mask id="mask19_5103_359" style="mask-type:luminance" maskUnits="userSpaceOnUse" x="-25" y="30" width="92" height="82">
<path d="M-24.2559 71.7579L21.8658 111.237L66.3557 70.0314L20.2494 30.5664L-24.2559 71.7579Z" fill="white"/>
</mask>
<g mask="url(#mask19_5103_359)">
<path d="M-24.0684 71.5661L21.8224 110.853L66.0967 69.8532L20.206 30.5801L-24.0684 71.5661Z" fill="#003C3C"/>
</g>
</g>
</g>
</g>
<path d="M36.9585 57.5476C36.9585 57.5476 25.6128 57.068 20.9945 53.1489C16.3762 57.068 5.03048 57.5476 5.03048 57.5476C5.03048 57.5476 3.38328 74.3887 6.23124 79.5C8.8329 84.1865 19.2395 88.7085 20.9945 89.1196C22.7648 88.7085 33.1561 84.1865 35.7577 79.5C38.6057 74.3887 36.9585 57.5476 36.9585 57.5476Z" fill="#00DC82"/>
<mask id="mask20_5103_359" style="mask-type:luminance" maskUnits="userSpaceOnUse" x="4" y="52" width="34" height="38">
<path d="M4.35352 52.8628H37.744V89.313H4.35352V52.8628Z" fill="white"/>
</mask>
<g mask="url(#mask20_5103_359)">
<mask id="mask21_5103_359" style="mask-type:luminance" maskUnits="userSpaceOnUse" x="4" y="52" width="34" height="38">
<path d="M5.21918 57.7144C5.06524 59.4136 3.77211 74.6652 6.41995 79.4338C8.94463 83.9833 19.1203 88.4642 20.9985 88.9438C22.892 88.4642 33.0677 83.9833 35.5924 79.4338C38.2402 74.6652 36.9317 59.4136 36.7777 57.7144C35.2999 57.6459 25.4321 56.9881 20.9985 53.3979C16.5649 56.9881 6.71244 57.6459 5.21918 57.7144ZM20.9985 89.3001C20.9831 89.3001 20.9677 89.3001 20.9523 89.3001C19.1049 88.8753 8.71371 84.367 6.05048 79.5846C3.21791 74.4733 4.77274 58.2214 4.83432 57.5363C4.84972 57.4541 4.92669 57.3855 5.03445 57.3718C5.14221 57.3718 16.3493 56.8511 20.8599 53.0279C20.9369 52.9594 21.06 52.9594 21.137 53.0279C25.6476 56.8511 36.8547 57.3718 36.9779 57.3718C37.0702 57.3855 37.1472 57.4541 37.1626 57.5363C37.2242 58.2214 38.779 74.4733 35.9464 79.5846C33.2986 84.367 22.892 88.8753 21.0446 89.3001C21.0292 89.3001 21.0139 89.3001 20.9985 89.3001Z" fill="white"/>
</mask>
<g mask="url(#mask21_5103_359)">
<mask id="mask22_5103_359" style="mask-type:luminance" maskUnits="userSpaceOnUse" x="4" y="52" width="34" height="38">
<path d="M5.21137 57.7149C5.05742 59.4141 3.7643 74.6656 6.41213 79.4343C8.93682 83.9838 19.1125 88.4647 20.9906 88.9443C22.8842 88.4647 33.0599 83.9838 35.5846 79.4343C38.2324 74.6656 36.9239 59.4141 36.7699 57.7149C35.2921 57.6464 25.4242 56.9886 20.9906 53.3984C16.5571 56.9886 6.70463 57.6464 5.21137 57.7149ZM20.9906 89.3006C20.9753 89.3006 20.9599 89.3006 20.9445 89.3006C19.0971 88.8758 8.7059 84.3674 6.04267 79.5851C3.2101 74.4738 4.76493 58.2219 4.82651 57.5368C4.84191 57.4545 4.91888 57.386 5.02664 57.3723C5.1344 57.3723 16.3415 56.8516 20.8521 53.0284C20.9291 52.9599 21.0522 52.9599 21.1292 53.0284C25.6398 56.8516 36.8469 57.3723 36.9701 57.3723C37.0624 57.386 37.1394 57.4545 37.1548 57.5368C37.2164 58.2219 38.7712 74.4738 35.9386 79.5851C33.2908 84.3674 22.8842 88.8758 21.0368 89.3006C21.0214 89.3006 21.006 89.3006 20.9906 89.3006Z" fill="white"/>
</mask>
<g mask="url(#mask22_5103_359)">
<mask id="mask23_5103_359" style="mask-type:luminance" maskUnits="userSpaceOnUse" x="-18" y="37" width="78" height="69">
<path d="M-17.2871 71.8442L21.5838 105.115L59.0692 70.4191L20.1983 37.1479L-17.2871 71.8442Z" fill="white"/>
</mask>
<g mask="url(#mask23_5103_359)">
<path d="M-16.1074 71.8445L21.6397 104.143L58.0783 70.4193L20.3312 38.1074L-16.1074 71.8445Z" fill="#003C3C"/>
</g>
</g>
</g>
</g>
<mask id="mask24_5103_359" style="mask-type:luminance" maskUnits="userSpaceOnUse" x="11" y="60" width="22" height="23">
<path d="M11.1426 60.5361H32.8641V82.1185H11.1426V60.5361Z" fill="white"/>
</mask>
<g mask="url(#mask24_5103_359)">
<mask id="mask25_5103_359" style="mask-type:luminance" maskUnits="userSpaceOnUse" x="11" y="60" width="22" height="23">
<path d="M20.4727 82.1032L11.2207 75.3065L14.6229 71.6203L18.9795 74.8131L28.0776 60.603L32.7267 62.96L20.4727 82.1032Z" fill="white"/>
</mask>
<g mask="url(#mask25_5103_359)">
<mask id="mask26_5103_359" style="mask-type:luminance" maskUnits="userSpaceOnUse" x="11" y="60" width="22" height="23">
<path d="M20.4727 82.1027L11.2207 75.306L14.6229 71.6198L18.9795 74.8127L28.0776 60.6025L32.7267 62.9595L20.4727 82.1027Z" fill="white"/>
</mask>
<g mask="url(#mask26_5103_359)">
<mask id="mask27_5103_359" style="mask-type:luminance" maskUnits="userSpaceOnUse" x="-1" y="51" width="46" height="41">
<path d="M-0.833984 71.7709L22.4116 91.6678L44.8105 70.9213L21.5649 51.0244L-0.833984 71.7709Z" fill="white"/>
</mask>
<g mask="url(#mask27_5103_359)">
<path d="M-0.833984 71.7709L22.4116 91.6678L44.8105 70.9213L21.5649 51.0244L-0.833984 71.7709Z" fill="#003C3C"/>
</g>
</g>
</g>
</g>
</svg>
